{
	"asset":{
		"generator":"Khronos glTF Blender I/O v4.5.47",
		"version":"2.0"
	},
	"extensionsUsed":[
		"KHR_texture_transform"
	],
	"extensionsRequired":[
		"KHR_texture_transform"
	],
	"scene":0,
	"scenes":[
		{
			"name":"Scene",
			"nodes":[
				0
			]
		}
	],
	"nodes":[
		{
			"mesh":0,
			"name":"Floor 1",
			"rotation":[
				0,
				0.7071067094802856,
				0,
				0.7071068286895752
			],
			"scale":[
				2,
				2,
				2
			]
		}
	],
	"materials":[
		{
			"doubleSided":true,
			"name":"Metal_gray",
			"normalTexture":{
				"extensions":{
					"KHR_texture_transform":{
						"offset":[
							0,
							-1
						],
						"scale":[
							2,
							2
						]
					}
				},
				"index":0
			},
			"pbrMetallicRoughness":{
				"baseColorTexture":{
					"extensions":{
						"KHR_texture_transform":{
							"offset":[
								0,
								-1
							],
							"scale":[
								2,
								2
							]
						}
					},
					"index":1
				},
				"metallicRoughnessTexture":{
					"extensions":{
						"KHR_texture_transform":{
							"offset":[
								0,
								-1
							],
							"scale":[
								2,
								2
							]
						}
					},
					"index":2
				}
			}
		},
		{
			"doubleSided":true,
			"name":"Metal_White",
			"normalTexture":{
				"extensions":{
					"KHR_texture_transform":{
						"offset":[
							0,
							-1
						],
						"scale":[
							2,
							2
						]
					}
				},
				"index":3
			},
			"pbrMetallicRoughness":{
				"baseColorTexture":{
					"extensions":{
						"KHR_texture_transform":{
							"offset":[
								0,
								-1
							],
							"scale":[
								2,
								2
							]
						}
					},
					"index":4
				},
				"metallicRoughnessTexture":{
					"extensions":{
						"KHR_texture_transform":{
							"offset":[
								0,
								-1
							],
							"scale":[
								2,
								2
							]
						}
					},
					"index":5
				}
			}
		},
		{
			"doubleSided":true,
			"name":"Metal_Black",
			"normalTexture":{
				"index":6
			},
			"pbrMetallicRoughness":{
				"baseColorTexture":{
					"index":7
				},
				"metallicRoughnessTexture":{
					"index":8
				}
			}
		},
		{
			"doubleSided":true,
			"name":"Metal_Orange",
			"normalTexture":{
				"extensions":{
					"KHR_texture_transform":{
						"offset":[
							0,
							-1
						],
						"scale":[
							2,
							2
						]
					}
				},
				"index":9
			},
			"pbrMetallicRoughness":{
				"baseColorTexture":{
					"extensions":{
						"KHR_texture_transform":{
							"offset":[
								0,
								-1
							],
							"scale":[
								2,
								2
							]
						}
					},
					"index":10
				},
				"metallicRoughnessTexture":{
					"extensions":{
						"KHR_texture_transform":{
							"offset":[
								0,
								-1
							],
							"scale":[
								2,
								2
							]
						}
					},
					"index":11
				}
			}
		}
	],
	"meshes":[
		{
			"name":"Plane.013",
			"primitives":[
				{
					"attributes":{
						"POSITION":0,
						"NORMAL":1,
						"TEXCOORD_0":2
					},
					"indices":3,
					"material":0
				},
				{
					"attributes":{
						"POSITION":4,
						"NORMAL":5,
						"TEXCOORD_0":6
					},
					"indices":7,
					"material":1
				},
				{
					"attributes":{
						"POSITION":8,
						"NORMAL":9,
						"TEXCOORD_0":10
					},
					"indices":11,
					"material":2
				},
				{
					"attributes":{
						"POSITION":12,
						"NORMAL":13,
						"TEXCOORD_0":14
					},
					"indices":15,
					"material":3
				}
			]
		}
	],
	"textures":[
		{
			"sampler":0,
			"source":0
		},
		{
			"sampler":0,
			"source":1
		},
		{
			"sampler":0,
			"source":2
		},
		{
			"sampler":0,
			"source":3
		},
		{
			"sampler":0,
			"source":4
		},
		{
			"sampler":0,
			"source":5
		},
		{
			"sampler":0,
			"source":6
		},
		{
			"sampler":0,
			"source":7
		},
		{
			"sampler":0,
			"source":8
		},
		{
			"sampler":0,
			"source":9
		},
		{
			"sampler":0,
			"source":10
		},
		{
			"sampler":0,
			"source":11
		}
	],
	"images":[
		{
			"mimeType":"image/png",
			"name":"Metal_Gray_Normal",
			"uri":"Metal_Gray_Normal.png"
		},
		{
			"mimeType":"image/png",
			"name":"Metal_Gray_BaseColor",
			"uri":"Metal_Gray_BaseColor.png"
		},
		{
			"mimeType":"image/png",
			"name":"Metal_Gray_Roughness",
			"uri":"Metal_Gray_Roughness.png"
		},
		{
			"mimeType":"image/png",
			"name":"Metal_White_Normal",
			"uri":"Metal_White_Normal.png"
		},
		{
			"mimeType":"image/png",
			"name":"Metal_White_BaseColor",
			"uri":"Metal_White_BaseColor.png"
		},
		{
			"mimeType":"image/png",
			"name":"Metal_White_Roughness",
			"uri":"Metal_White_Roughness.png"
		},
		{
			"mimeType":"image/png",
			"name":"Metal_Black_Normal",
			"uri":"Metal_Black_Normal.png"
		},
		{
			"mimeType":"image/png",
			"name":"Metal_Black_BaseColor",
			"uri":"Metal_Black_BaseColor.png"
		},
		{
			"mimeType":"image/png",
			"name":"Metal_Black_Roughness",
			"uri":"Metal_Black_Roughness.png"
		},
		{
			"mimeType":"image/png",
			"name":"Metal_Orange_Normal",
			"uri":"Metal_Orange_Normal.png"
		},
		{
			"mimeType":"image/png",
			"name":"Metal_Orange_BaseColor",
			"uri":"Metal_Orange_BaseColor.png"
		},
		{
			"mimeType":"image/png",
			"name":"Metal_Orange_BaseColor.png-Metal_Orange_Roughness.png",
			"uri":"Metal_Orange_BaseColor.png-Metal_Orange_Roughness.png.png"
		}
	],
	"accessors":[
		{
			"bufferView":0,
			"componentType":5126,
			"count":2192,
			"max":[
				0.49997377395629883,
				0.023671790957450867,
				0.49997538328170776
			],
			"min":[
				-0.49997377395629883,
				-0.03125663846731186,
				-0.49997538328170776
			],
			"type":"VEC3"
		},
		{
			"bufferView":1,
			"componentType":5126,
			"count":2192,
			"type":"VEC3"
		},
		{
			"bufferView":2,
			"componentType":5126,
			"count":2192,
			"type":"VEC2"
		},
		{
			"bufferView":3,
			"componentType":5123,
			"count":5268,
			"type":"SCALAR"
		},
		{
			"bufferView":4,
			"componentType":5126,
			"count":1344,
			"max":[
				0.3776286244392395,
				0.02362087368965149,
				0.3776286244392395
			],
			"min":[
				-0.3776286244392395,
				-0.03125663846731186,
				-0.3776286244392395
			],
			"type":"VEC3"
		},
		{
			"bufferView":5,
			"componentType":5126,
			"count":1344,
			"type":"VEC3"
		},
		{
			"bufferView":6,
			"componentType":5126,
			"count":1344,
			"type":"VEC2"
		},
		{
			"bufferView":7,
			"componentType":5123,
			"count":4320,
			"type":"SCALAR"
		},
		{
			"bufferView":8,
			"componentType":5126,
			"count":1120,
			"max":[
				0.36376044154167175,
				0.02479984238743782,
				0.3637593984603882
			],
			"min":[
				-0.36376044154167175,
				0.015320522710680962,
				-0.3637593984603882
			],
			"type":"VEC3"
		},
		{
			"bufferView":9,
			"componentType":5126,
			"count":1120,
			"type":"VEC3"
		},
		{
			"bufferView":10,
			"componentType":5126,
			"count":1120,
			"type":"VEC2"
		},
		{
			"bufferView":11,
			"componentType":5123,
			"count":3216,
			"type":"SCALAR"
		},
		{
			"bufferView":12,
			"componentType":5126,
			"count":176,
			"max":[
				0.10417217761278152,
				0.016622301191091537,
				0.442549467086792
			],
			"min":[
				-0.10417217761278152,
				0.013418350368738174,
				-0.442549467086792
			],
			"type":"VEC3"
		},
		{
			"bufferView":13,
			"componentType":5126,
			"count":176,
			"type":"VEC3"
		},
		{
			"bufferView":14,
			"componentType":5126,
			"count":176,
			"type":"VEC2"
		},
		{
			"bufferView":15,
			"componentType":5123,
			"count":360,
			"type":"SCALAR"
		}
	],
	"bufferViews":[
		{
			"buffer":0,
			"byteLength":26304,
			"byteOffset":0,
			"target":34962
		},
		{
			"buffer":0,
			"byteLength":26304,
			"byteOffset":26304,
			"target":34962
		},
		{
			"buffer":0,
			"byteLength":17536,
			"byteOffset":52608,
			"target":34962
		},
		{
			"buffer":0,
			"byteLength":10536,
			"byteOffset":70144,
			"target":34963
		},
		{
			"buffer":0,
			"byteLength":16128,
			"byteOffset":80680,
			"target":34962
		},
		{
			"buffer":0,
			"byteLength":16128,
			"byteOffset":96808,
			"target":34962
		},
		{
			"buffer":0,
			"byteLength":10752,
			"byteOffset":112936,
			"target":34962
		},
		{
			"buffer":0,
			"byteLength":8640,
			"byteOffset":123688,
			"target":34963
		},
		{
			"buffer":0,
			"byteLength":13440,
			"byteOffset":132328,
			"target":34962
		},
		{
			"buffer":0,
			"byteLength":13440,
			"byteOffset":145768,
			"target":34962
		},
		{
			"buffer":0,
			"byteLength":8960,
			"byteOffset":159208,
			"target":34962
		},
		{
			"buffer":0,
			"byteLength":6432,
			"byteOffset":168168,
			"target":34963
		},
		{
			"buffer":0,
			"byteLength":2112,
			"byteOffset":174600,
			"target":34962
		},
		{
			"buffer":0,
			"byteLength":2112,
			"byteOffset":176712,
			"target":34962
		},
		{
			"buffer":0,
			"byteLength":1408,
			"byteOffset":178824,
			"target":34962
		},
		{
			"buffer":0,
			"byteLength":720,
			"byteOffset":180232,
			"target":34963
		}
	],
	"samplers":[
		{
			"magFilter":9729,
			"minFilter":9987
		}
	],
	"buffers":[
		{
			"byteLength":180952,
			"uri":"test.bin"
		}
	]
}
